<svg width="1200" height="630" viewBox="0 0 1200 630" xmlns="http://www.w3.org/2000/svg" role="img" aria-label="StrikeUp — Bitcoin Up or Down, powered by Strike Finance">
  <defs>
    <linearGradient id="bg" x1="0" y1="0" x2="1200" y2="630" gradientUnits="userSpaceOnUse">
      <stop offset="0" stop-color="#0b0d12"/>
      <stop offset="1" stop-color="#070809"/>
    </linearGradient>
    <linearGradient id="tile" x1="0" y1="0" x2="0" y2="512" gradientUnits="userSpaceOnUse">
      <stop offset="0" stop-color="#14171f"/>
      <stop offset="1" stop-color="#0a0b0e"/>
    </linearGradient>
    <linearGradient id="bolt" x1="256" y1="96" x2="256" y2="412" gradientUnits="userSpaceOnUse">
      <stop offset="0" stop-color="#3ce594"/>
      <stop offset="0.55" stop-color="#1fb86a"/>
      <stop offset="1" stop-color="#f7931a"/>
    </linearGradient>
    <linearGradient id="trend" x1="560" y1="240" x2="560" y2="520" gradientUnits="userSpaceOnUse">
      <stop offset="0" stop-color="#2ad17e" stop-opacity="0.28"/>
      <stop offset="1" stop-color="#2ad17e" stop-opacity="0"/>
    </linearGradient>
  </defs>

  <rect width="1200" height="630" fill="url(#bg)"/>

  <g stroke="#ffffff" stroke-opacity="0.035" stroke-width="1">
    <line x1="0" y1="160" x2="1200" y2="160"/>
    <line x1="0" y1="290" x2="1200" y2="290"/>
    <line x1="0" y1="420" x2="1200" y2="420"/>
    <line x1="660" y1="0" x2="660" y2="630"/>
    <line x1="840" y1="0" x2="840" y2="630"/>
    <line x1="1020" y1="0" x2="1020" y2="630"/>
  </g>

  <text x="1185" y="585" text-anchor="end" font-family="'Inter',system-ui,sans-serif" font-size="340" font-weight="800" fill="#f7931a" fill-opacity="0.045">₿</text>

  <path d="M600 470 L648 445 L696 432 L744 440 L792 415 L840 388 L888 390 L936 362 L984 335 L1032 338 L1080 312 L1080 520 L600 520 Z" fill="url(#trend)"/>

  <g stroke-linecap="round">
    <line x1="600" y1="415" x2="600" y2="485" stroke="#f6465d" stroke-width="3"/>
    <rect x="587" y="430" width="26" height="40" rx="3" fill="#f6465d"/>
    <line x1="648" y1="395" x2="648" y2="460" stroke="#2ad17e" stroke-width="3"/>
    <rect x="635" y="410" width="26" height="35" rx="3" fill="#2ad17e"/>
    <line x1="696" y1="385" x2="696" y2="450" stroke="#2ad17e" stroke-width="3"/>
    <rect x="683" y="400" width="26" height="32" rx="3" fill="#2ad17e"/>
    <line x1="744" y1="398" x2="744" y2="455" stroke="#f6465d" stroke-width="3"/>
    <rect x="731" y="412" width="26" height="28" rx="3" fill="#f6465d"/>
    <line x1="792" y1="360" x2="792" y2="430" stroke="#2ad17e" stroke-width="3"/>
    <rect x="779" y="372" width="26" height="43" rx="3" fill="#2ad17e"/>
    <line x1="840" y1="338" x2="840" y2="402" stroke="#2ad17e" stroke-width="3"/>
    <rect x="827" y="350" width="26" height="38" rx="3" fill="#2ad17e"/>
    <line x1="888" y1="348" x2="888" y2="405" stroke="#f6465d" stroke-width="3"/>
    <rect x="875" y="360" width="26" height="30" rx="3" fill="#f6465d"/>
    <line x1="936" y1="305" x2="936" y2="378" stroke="#2ad17e" stroke-width="3"/>
    <rect x="923" y="318" width="26" height="44" rx="3" fill="#2ad17e"/>
    <line x1="984" y1="288" x2="984" y2="350" stroke="#2ad17e" stroke-width="3"/>
    <rect x="971" y="300" width="26" height="35" rx="3" fill="#2ad17e"/>
    <line x1="1032" y1="300" x2="1032" y2="352" stroke="#f6465d" stroke-width="3"/>
    <rect x="1019" y="312" width="26" height="26" rx="3" fill="#f6465d"/>
    <line x1="1080" y1="250" x2="1080" y2="330" stroke="#2ad17e" stroke-width="3"/>
    <rect x="1067" y="262" width="26" height="50" rx="3" fill="#2ad17e"/>
  </g>

  <line x1="576" y1="406" x2="1140" y2="406" stroke="#f7931a" stroke-width="2" stroke-dasharray="7 7" stroke-opacity="0.85"/>
  <rect x="1086" y="392" width="72" height="27" rx="6" fill="#f7931a"/>
  <text x="1122" y="411" text-anchor="middle" font-family="'Inter',system-ui,sans-serif" font-size="15" font-weight="700" fill="#1a1205">to beat</text>

  <g transform="translate(72,84) scale(0.1875)">
    <rect x="8" y="8" width="496" height="496" rx="116" fill="url(#tile)" stroke="#2a2f3a" stroke-width="4"/>
    <path d="M273 106 L273 222 L372 222 L240 405 L240 288 L140 288 Z" fill="url(#bolt)" stroke="#0a0b0e" stroke-width="7" stroke-linejoin="round"/>
  </g>

  <text x="190" y="152" font-family="'Inter','Segoe UI',system-ui,sans-serif" font-size="62" font-weight="800" letter-spacing="-1.5"><tspan fill="#e8eaed">Strike</tspan><tspan fill="#2ad17e">Up</tspan></text>

  <text x="74" y="232" font-family="'Inter',system-ui,sans-serif" font-size="30" font-weight="700" fill="#e8eaed">Bet Bitcoin Up or Down in 5 minutes.</text>
  <text x="74" y="270" font-family="'Inter',system-ui,sans-serif" font-size="20" font-weight="500" fill="#8a8f9c">Powered by Strike Finance — Cardano perpetuals.</text>

  <g font-family="'Inter',system-ui,sans-serif" font-size="22" font-weight="800">
    <rect x="74" y="306" width="148" height="56" rx="14" fill="#2ad17e"/>
    <path d="M104 344 L116 322 L128 344 Z" fill="#0a3a22"/>
    <text x="200" y="343" text-anchor="end" fill="#073018">UP</text>
    <rect x="238" y="306" width="178" height="56" rx="14" fill="#f6465d"/>
    <path d="M268 324 L280 346 L292 324 Z" fill="#4a0c14"/>
    <text x="398" y="343" text-anchor="end" fill="#3d0a11">DOWN</text>
  </g>

  <g font-family="'Inter',system-ui,sans-serif">
    <rect x="74" y="540" width="13" height="13" rx="2" fill="#f7931a"/>
    <text x="98" y="551" font-size="18" font-weight="500" fill="#6b7280">No custom backend or smart contract — pure Strike Finance API.</text>
  </g>
</svg>
